<svg viewBox="0 0 12 12" width="168px" height="168px" xmlns="http://www.w3.org/2000/svg"><path fill-rule="evenodd" d="M 0,0 4,0 4,2 8,2 8,0 12,0 12,5 11,5 11,6 12,6 12,12 0,12 0,6 1,6 1,5 0,5z" fill="#AF855A"/><path fill-rule="evenodd" d="M 1,1 3,1 3,4 1,4z" fill="#ffffff"/><path fill-rule="evenodd" d="M 9,1 11,1 11,4 9,4z" fill="#ffffff"/><path fill-rule="evenodd" d="M 4,3 5,3 5,4 4,4z" fill="#ffffff"/><path fill-rule="evenodd" d="M 7,3 8,3 8,4 7,4z" fill="#ffffff"/><path fill-rule="evenodd" d="M 5,4 7,4 7,6 5,6z" fill="#ffffff"/><path fill-rule="evenodd" d="M 2,6 3,6 3,7 2,7z" fill="#ffffff"/><path fill-rule="evenodd" d="M 4,6 5,6 5,7 4,7z" fill="#ffffff"/><path fill-rule="evenodd" d="M 7,6 8,6 8,7 7,7z" fill="#ffffff"/><path fill-rule="evenodd" d="M 9,6 10,6 10,7 9,7z" fill="#ffffff"/><path fill-rule="evenodd" d="M 1,7 2,7 2,8 1,8z" fill="#ffffff"/><path fill-rule="evenodd" d="M 3,7 4,7 4,8 3,8z" fill="#ffffff"/><path fill-rule="evenodd" d="M 5,7 7,7 7,8 8,8 8,9 9,9 9,10 7,10 7,9 5,9 5,10 3,10 3,9 4,9 4,8 5,8z" fill="#ffffff"/><path fill-rule="evenodd" d="M 8,7 9,7 9,8 8,8z" fill="#ffffff"/><path fill-rule="evenodd" d="M 10,7 11,7 11,8 10,8z" fill="#ffffff"/><path fill-rule="evenodd" d="M 1,9 2,9 2,10 3,10 3,11 1,11z" fill="#ffffff"/><path fill-rule="evenodd" d="M 10,9 11,9 11,11 9,11 9,10 10,10z" fill="#ffffff"/><path fill-rule="evenodd" d="M 5,10 7,10 7,11 5,11z" fill="#ffffff"/></svg>